<svg width="22" height="19" viewBox="0 0 22 19" fill="none" xmlns="http://www.w3.org/2000/svg">
<path d="M13.478 7.5H16.678M13.478 11.5H16.678M5.48803 13.1C5.48803 12.5165 5.71981 11.9569 6.13239 11.5444C6.54497 11.1318 7.10455 10.9 7.68803 10.9C8.2715 10.9 8.83108 11.1318 9.24366 11.5444C9.65624 11.9569 9.88803 12.5165 9.88803 13.1M9.88803 8.3C9.88803 9.51503 8.90305 10.5 7.68803 10.5C6.473 10.5 5.48803 9.51503 5.48803 8.3C5.48803 7.08497 6.473 6.1 7.68803 6.1C8.90305 6.1 9.88803 7.08497 9.88803 8.3ZM2.27803 1.5H19.878C20.3199 1.5 20.678 1.85817 20.678 2.3V16.7C20.678 17.1418 20.3199 17.5 19.878 17.5H2.27803C1.8362 17.5 1.47803 17.1418 1.47803 16.7V2.3C1.47803 1.85817 1.8362 1.5 2.27803 1.5Z" stroke="#C98E26" stroke-width="1.5" stroke-linecap="round" stroke-linejoin="round"/>
</svg>
