<svg width="20" height="19" viewBox="0 0 20 19" fill="none" xmlns="http://www.w3.org/2000/svg">
<path d="M16.0235 15.3182V17.5M4.38712 15.3182V17.5M14.9326 8.77273H18.9326M14.9326 8.77273C14.9326 10.3794 13.6301 11.6818 12.0235 11.6818C10.4168 11.6818 9.11439 10.3794 9.11439 8.77273C9.11439 7.16608 10.4168 5.86364 12.0235 5.86364C13.6301 5.86364 14.9326 7.16608 14.9326 8.77273ZM2.2053 1.5H18.2053C18.607 1.5 18.9326 1.82561 18.9326 2.22727V14.5909C18.9326 14.9926 18.607 15.3182 18.2053 15.3182H2.2053C1.80364 15.3182 1.47803 14.9926 1.47803 14.5909V2.22727C1.47803 1.82561 1.80364 1.5 2.2053 1.5Z" stroke="#C98E26" stroke-width="1.5" stroke-linecap="round" stroke-linejoin="round"/>
</svg>
